<mxfile host="app.diagrams.net" modified="2023-08-21T04:55:35.569Z" agent="Mozilla/5.0 (Windows NT 10.0; Win64; x64) AppleWebKit/537.36 (KHTML, like Gecko) Chrome/115.0.0.0 Safari/537.36" etag="3bYZ2rmdA0AEX0zsiZ5p" version="21.6.8" type="device">
  <diagram name="Page-1" id="maIhoamzt6So5GWr1it5">
    <mxGraphModel dx="1114" dy="578" grid="1" gridSize="10" guides="1" tooltips="1" connect="1" arrows="1" fold="1" page="1" pageScale="1" pageWidth="850" pageHeight="1100" math="0" shadow="0">
      <root>
        <mxCell id="0" />
        <mxCell id="1" parent="0" />
        <mxCell id="-5FIWgzTD5Q0oiWVd5yK-8" style="edgeStyle=orthogonalEdgeStyle;rounded=0;orthogonalLoop=1;jettySize=auto;html=1;" edge="1" parent="1" source="-5FIWgzTD5Q0oiWVd5yK-2" target="-5FIWgzTD5Q0oiWVd5yK-4">
          <mxGeometry relative="1" as="geometry" />
        </mxCell>
        <mxCell id="-5FIWgzTD5Q0oiWVd5yK-2" value="Tomcat Server" style="swimlane;whiteSpace=wrap;html=1;" vertex="1" parent="1">
          <mxGeometry width="200" height="60" as="geometry" />
        </mxCell>
        <mxCell id="-5FIWgzTD5Q0oiWVd5yK-3" value="startTomcat(): void&lt;br&gt;" style="text;html=1;align=center;verticalAlign=middle;resizable=0;points=[];autosize=1;strokeColor=none;fillColor=none;" vertex="1" parent="-5FIWgzTD5Q0oiWVd5yK-2">
          <mxGeometry x="40" y="20" width="120" height="30" as="geometry" />
        </mxCell>
        <mxCell id="-5FIWgzTD5Q0oiWVd5yK-9" style="edgeStyle=orthogonalEdgeStyle;rounded=0;orthogonalLoop=1;jettySize=auto;html=1;entryX=0;entryY=0.5;entryDx=0;entryDy=0;" edge="1" parent="1" source="-5FIWgzTD5Q0oiWVd5yK-4" target="-5FIWgzTD5Q0oiWVd5yK-5">
          <mxGeometry relative="1" as="geometry" />
        </mxCell>
        <mxCell id="-5FIWgzTD5Q0oiWVd5yK-4" value="startTomcat" style="whiteSpace=wrap;html=1;" vertex="1" parent="1">
          <mxGeometry x="270" width="120" height="60" as="geometry" />
        </mxCell>
        <mxCell id="-5FIWgzTD5Q0oiWVd5yK-10" style="edgeStyle=orthogonalEdgeStyle;rounded=0;orthogonalLoop=1;jettySize=auto;html=1;entryX=0;entryY=0.5;entryDx=0;entryDy=0;" edge="1" parent="1" source="-5FIWgzTD5Q0oiWVd5yK-5" target="-5FIWgzTD5Q0oiWVd5yK-6">
          <mxGeometry relative="1" as="geometry" />
        </mxCell>
        <mxCell id="-5FIWgzTD5Q0oiWVd5yK-11" style="edgeStyle=orthogonalEdgeStyle;rounded=0;orthogonalLoop=1;jettySize=auto;html=1;entryX=0;entryY=0.5;entryDx=0;entryDy=0;" edge="1" parent="1" source="-5FIWgzTD5Q0oiWVd5yK-5" target="-5FIWgzTD5Q0oiWVd5yK-7">
          <mxGeometry relative="1" as="geometry" />
        </mxCell>
        <mxCell id="-5FIWgzTD5Q0oiWVd5yK-5" value="&lt;div style=&quot;text-align: start;&quot;&gt;&lt;span style=&quot;background-color: initial;&quot;&gt;&lt;b&gt;startup script file&lt;/b&gt;&amp;nbsp;&lt;/span&gt;&lt;/div&gt;&lt;div style=&quot;text-align: start;&quot;&gt;&lt;font face=&quot;Raleway, sans-serif&quot;&gt;&lt;i&gt;$CATALINA_HOME\bin\startup&lt;/i&gt;&lt;/font&gt;&lt;/div&gt;" style="whiteSpace=wrap;html=1;" vertex="1" parent="1">
          <mxGeometry x="430" width="190" height="60" as="geometry" />
        </mxCell>
        <mxCell id="-5FIWgzTD5Q0oiWVd5yK-6" value=".bat" style="whiteSpace=wrap;html=1;" vertex="1" parent="1">
          <mxGeometry x="660" width="120" height="60" as="geometry" />
        </mxCell>
        <mxCell id="-5FIWgzTD5Q0oiWVd5yK-7" value=".bin" style="whiteSpace=wrap;html=1;" vertex="1" parent="1">
          <mxGeometry x="660" y="80" width="120" height="60" as="geometry" />
        </mxCell>
        <mxCell id="-5FIWgzTD5Q0oiWVd5yK-18" value="" style="edgeStyle=orthogonalEdgeStyle;rounded=0;orthogonalLoop=1;jettySize=auto;html=1;" edge="1" parent="1" source="-5FIWgzTD5Q0oiWVd5yK-12" target="-5FIWgzTD5Q0oiWVd5yK-15">
          <mxGeometry relative="1" as="geometry" />
        </mxCell>
        <mxCell id="-5FIWgzTD5Q0oiWVd5yK-12" value="Obtain Dashboard Access" style="whiteSpace=wrap;html=1;" vertex="1" parent="1">
          <mxGeometry x="320" y="120" width="120" height="60" as="geometry" />
        </mxCell>
        <mxCell id="-5FIWgzTD5Q0oiWVd5yK-16" value="" style="edgeStyle=orthogonalEdgeStyle;rounded=0;orthogonalLoop=1;jettySize=auto;html=1;" edge="1" parent="1" source="-5FIWgzTD5Q0oiWVd5yK-13" target="-5FIWgzTD5Q0oiWVd5yK-14">
          <mxGeometry relative="1" as="geometry" />
        </mxCell>
        <mxCell id="-5FIWgzTD5Q0oiWVd5yK-13" value="Deployment Phase" style="whiteSpace=wrap;html=1;" vertex="1" parent="1">
          <mxGeometry y="120" width="120" height="60" as="geometry" />
        </mxCell>
        <mxCell id="-5FIWgzTD5Q0oiWVd5yK-17" value="" style="edgeStyle=orthogonalEdgeStyle;rounded=0;orthogonalLoop=1;jettySize=auto;html=1;" edge="1" parent="1" source="-5FIWgzTD5Q0oiWVd5yK-14" target="-5FIWgzTD5Q0oiWVd5yK-12">
          <mxGeometry relative="1" as="geometry" />
        </mxCell>
        <mxCell id="-5FIWgzTD5Q0oiWVd5yK-14" value="Tomcat&#39;s Management Dashboard" style="whiteSpace=wrap;html=1;" vertex="1" parent="1">
          <mxGeometry x="160" y="120" width="120" height="60" as="geometry" />
        </mxCell>
        <mxCell id="-5FIWgzTD5Q0oiWVd5yK-20" style="edgeStyle=orthogonalEdgeStyle;rounded=0;orthogonalLoop=1;jettySize=auto;html=1;entryX=-0.017;entryY=0.617;entryDx=0;entryDy=0;entryPerimeter=0;" edge="1" parent="1" source="-5FIWgzTD5Q0oiWVd5yK-15" target="-5FIWgzTD5Q0oiWVd5yK-19">
          <mxGeometry relative="1" as="geometry" />
        </mxCell>
        <mxCell id="-5FIWgzTD5Q0oiWVd5yK-23" style="edgeStyle=orthogonalEdgeStyle;rounded=0;orthogonalLoop=1;jettySize=auto;html=1;entryX=0.5;entryY=0;entryDx=0;entryDy=0;" edge="1" parent="1" source="-5FIWgzTD5Q0oiWVd5yK-15" target="-5FIWgzTD5Q0oiWVd5yK-22">
          <mxGeometry relative="1" as="geometry">
            <Array as="points">
              <mxPoint x="540" y="200" />
              <mxPoint x="220" y="200" />
            </Array>
          </mxGeometry>
        </mxCell>
        <mxCell id="-5FIWgzTD5Q0oiWVd5yK-15" value="Admin user configured with appropriate roles" style="whiteSpace=wrap;html=1;" vertex="1" parent="1">
          <mxGeometry x="480" y="120" width="120" height="60" as="geometry" />
        </mxCell>
        <mxCell id="-5FIWgzTD5Q0oiWVd5yK-28" style="edgeStyle=orthogonalEdgeStyle;rounded=0;orthogonalLoop=1;jettySize=auto;html=1;exitX=0.5;exitY=1;exitDx=0;exitDy=0;entryX=1;entryY=0.5;entryDx=0;entryDy=0;" edge="1" parent="1" source="-5FIWgzTD5Q0oiWVd5yK-19" target="-5FIWgzTD5Q0oiWVd5yK-25">
          <mxGeometry relative="1" as="geometry" />
        </mxCell>
        <mxCell id="-5FIWgzTD5Q0oiWVd5yK-19" value="manager-gui role" style="whiteSpace=wrap;html=1;" vertex="1" parent="1">
          <mxGeometry x="660" y="160" width="120" height="60" as="geometry" />
        </mxCell>
        <mxCell id="-5FIWgzTD5Q0oiWVd5yK-24" style="edgeStyle=orthogonalEdgeStyle;rounded=0;orthogonalLoop=1;jettySize=auto;html=1;exitX=1;exitY=0.5;exitDx=0;exitDy=0;entryX=0;entryY=0.5;entryDx=0;entryDy=0;" edge="1" parent="1" source="-5FIWgzTD5Q0oiWVd5yK-21" target="-5FIWgzTD5Q0oiWVd5yK-22">
          <mxGeometry relative="1" as="geometry" />
        </mxCell>
        <mxCell id="-5FIWgzTD5Q0oiWVd5yK-21" value="Deploy WAR using maven" style="whiteSpace=wrap;html=1;" vertex="1" parent="1">
          <mxGeometry y="220" width="120" height="60" as="geometry" />
        </mxCell>
        <mxCell id="-5FIWgzTD5Q0oiWVd5yK-26" style="edgeStyle=orthogonalEdgeStyle;rounded=0;orthogonalLoop=1;jettySize=auto;html=1;entryX=0;entryY=0.5;entryDx=0;entryDy=0;" edge="1" parent="1" source="-5FIWgzTD5Q0oiWVd5yK-22" target="-5FIWgzTD5Q0oiWVd5yK-25">
          <mxGeometry relative="1" as="geometry" />
        </mxCell>
        <mxCell id="-5FIWgzTD5Q0oiWVd5yK-22" value="manager-script role" style="whiteSpace=wrap;html=1;" vertex="1" parent="1">
          <mxGeometry x="160" y="220" width="120" height="60" as="geometry" />
        </mxCell>
        <mxCell id="-5FIWgzTD5Q0oiWVd5yK-30" style="edgeStyle=orthogonalEdgeStyle;rounded=0;orthogonalLoop=1;jettySize=auto;html=1;entryX=0.468;entryY=0.017;entryDx=0;entryDy=0;entryPerimeter=0;" edge="1" parent="1" source="-5FIWgzTD5Q0oiWVd5yK-25" target="-5FIWgzTD5Q0oiWVd5yK-29">
          <mxGeometry relative="1" as="geometry" />
        </mxCell>
        <mxCell id="-5FIWgzTD5Q0oiWVd5yK-25" value="&lt;b&gt;User Role File:&lt;/b&gt;&amp;nbsp;&lt;br&gt;$CATALINA_HOME\conf\tomcat-users" style="whiteSpace=wrap;html=1;" vertex="1" parent="1">
          <mxGeometry x="320" y="220" width="190" height="60" as="geometry" />
        </mxCell>
        <mxCell id="-5FIWgzTD5Q0oiWVd5yK-29" value="&lt;div&gt;&amp;lt;role rolename=&quot;manager-gui&quot;/&amp;gt;&lt;/div&gt;&lt;div&gt;&amp;lt;role rolename=&quot;manager-script&quot;/&amp;gt;&lt;/div&gt;&lt;div&gt;&amp;lt;user username=&quot;admin&quot; password=&quot;password&quot; roles=&quot;manager-gui, manager-script&quot;/&amp;gt;&lt;/div&gt;" style="whiteSpace=wrap;html=1;" vertex="1" parent="1">
          <mxGeometry x="285" y="320" width="280" height="60" as="geometry" />
        </mxCell>
        <mxCell id="-5FIWgzTD5Q0oiWVd5yK-33" style="edgeStyle=orthogonalEdgeStyle;rounded=0;orthogonalLoop=1;jettySize=auto;html=1;" edge="1" parent="1" source="-5FIWgzTD5Q0oiWVd5yK-31" target="-5FIWgzTD5Q0oiWVd5yK-32">
          <mxGeometry relative="1" as="geometry" />
        </mxCell>
        <mxCell id="-5FIWgzTD5Q0oiWVd5yK-31" value="Directory Permissions" style="whiteSpace=wrap;html=1;" vertex="1" parent="1">
          <mxGeometry y="400" width="120" height="60" as="geometry" />
        </mxCell>
        <mxCell id="-5FIWgzTD5Q0oiWVd5yK-32" value="Read/Write permissions on the tomcat installation directory" style="whiteSpace=wrap;html=1;" vertex="1" parent="1">
          <mxGeometry x="160" y="400" width="120" height="60" as="geometry" />
        </mxCell>
        <mxCell id="-5FIWgzTD5Q0oiWVd5yK-39" value="" style="edgeStyle=orthogonalEdgeStyle;rounded=0;orthogonalLoop=1;jettySize=auto;html=1;" edge="1" parent="1" source="-5FIWgzTD5Q0oiWVd5yK-34" target="-5FIWgzTD5Q0oiWVd5yK-35">
          <mxGeometry relative="1" as="geometry" />
        </mxCell>
        <mxCell id="-5FIWgzTD5Q0oiWVd5yK-34" value="Test Installation Success" style="whiteSpace=wrap;html=1;" vertex="1" parent="1">
          <mxGeometry y="480" width="120" height="60" as="geometry" />
        </mxCell>
        <mxCell id="-5FIWgzTD5Q0oiWVd5yK-40" value="" style="edgeStyle=orthogonalEdgeStyle;rounded=0;orthogonalLoop=1;jettySize=auto;html=1;" edge="1" parent="1" source="-5FIWgzTD5Q0oiWVd5yK-35" target="-5FIWgzTD5Q0oiWVd5yK-36">
          <mxGeometry relative="1" as="geometry" />
        </mxCell>
        <mxCell id="-5FIWgzTD5Q0oiWVd5yK-35" value="Run startup script&amp;nbsp;" style="whiteSpace=wrap;html=1;" vertex="1" parent="1">
          <mxGeometry x="160" y="480" width="120" height="60" as="geometry" />
        </mxCell>
        <mxCell id="-5FIWgzTD5Q0oiWVd5yK-41" value="" style="edgeStyle=orthogonalEdgeStyle;rounded=0;orthogonalLoop=1;jettySize=auto;html=1;" edge="1" parent="1" source="-5FIWgzTD5Q0oiWVd5yK-36" target="-5FIWgzTD5Q0oiWVd5yK-37">
          <mxGeometry relative="1" as="geometry" />
        </mxCell>
        <mxCell id="-5FIWgzTD5Q0oiWVd5yK-36" value="No Console Errors" style="whiteSpace=wrap;html=1;" vertex="1" parent="1">
          <mxGeometry x="320" y="480" width="120" height="60" as="geometry" />
        </mxCell>
        <mxCell id="-5FIWgzTD5Q0oiWVd5yK-42" value="" style="edgeStyle=orthogonalEdgeStyle;rounded=0;orthogonalLoop=1;jettySize=auto;html=1;" edge="1" parent="1" source="-5FIWgzTD5Q0oiWVd5yK-37" target="-5FIWgzTD5Q0oiWVd5yK-38">
          <mxGeometry relative="1" as="geometry" />
        </mxCell>
        <mxCell id="-5FIWgzTD5Q0oiWVd5yK-37" value="http://localhost:8080" style="whiteSpace=wrap;html=1;" vertex="1" parent="1">
          <mxGeometry x="480" y="480" width="120" height="60" as="geometry" />
        </mxCell>
        <mxCell id="-5FIWgzTD5Q0oiWVd5yK-38" value="Tomcat Displayed" style="whiteSpace=wrap;html=1;" vertex="1" parent="1">
          <mxGeometry x="630" y="480" width="120" height="60" as="geometry" />
        </mxCell>
        <mxCell id="-5FIWgzTD5Q0oiWVd5yK-50" value="" style="edgeStyle=orthogonalEdgeStyle;rounded=0;orthogonalLoop=1;jettySize=auto;html=1;" edge="1" parent="1" source="-5FIWgzTD5Q0oiWVd5yK-43" target="-5FIWgzTD5Q0oiWVd5yK-44">
          <mxGeometry relative="1" as="geometry" />
        </mxCell>
        <mxCell id="-5FIWgzTD5Q0oiWVd5yK-43" value="Resolve Port conflict" style="whiteSpace=wrap;html=1;" vertex="1" parent="1">
          <mxGeometry y="560" width="120" height="60" as="geometry" />
        </mxCell>
        <mxCell id="-5FIWgzTD5Q0oiWVd5yK-51" value="" style="edgeStyle=orthogonalEdgeStyle;rounded=0;orthogonalLoop=1;jettySize=auto;html=1;" edge="1" parent="1" source="-5FIWgzTD5Q0oiWVd5yK-44" target="-5FIWgzTD5Q0oiWVd5yK-45">
          <mxGeometry relative="1" as="geometry" />
        </mxCell>
        <mxCell id="-5FIWgzTD5Q0oiWVd5yK-44" value="default is 8080" style="whiteSpace=wrap;html=1;" vertex="1" parent="1">
          <mxGeometry x="160" y="560" width="120" height="60" as="geometry" />
        </mxCell>
        <mxCell id="-5FIWgzTD5Q0oiWVd5yK-52" value="" style="edgeStyle=orthogonalEdgeStyle;rounded=0;orthogonalLoop=1;jettySize=auto;html=1;" edge="1" parent="1" source="-5FIWgzTD5Q0oiWVd5yK-45" target="-5FIWgzTD5Q0oiWVd5yK-46">
          <mxGeometry relative="1" as="geometry" />
        </mxCell>
        <mxCell id="-5FIWgzTD5Q0oiWVd5yK-45" value="Console Error: already bound" style="whiteSpace=wrap;html=1;" vertex="1" parent="1">
          <mxGeometry x="320" y="560" width="120" height="60" as="geometry" />
        </mxCell>
        <mxCell id="-5FIWgzTD5Q0oiWVd5yK-53" value="" style="edgeStyle=orthogonalEdgeStyle;rounded=0;orthogonalLoop=1;jettySize=auto;html=1;" edge="1" parent="1" source="-5FIWgzTD5Q0oiWVd5yK-46" target="-5FIWgzTD5Q0oiWVd5yK-47">
          <mxGeometry relative="1" as="geometry" />
        </mxCell>
        <mxCell id="-5FIWgzTD5Q0oiWVd5yK-46" value="Modify server configuration file" style="whiteSpace=wrap;html=1;" vertex="1" parent="1">
          <mxGeometry x="480" y="560" width="120" height="60" as="geometry" />
        </mxCell>
        <mxCell id="-5FIWgzTD5Q0oiWVd5yK-49" style="edgeStyle=orthogonalEdgeStyle;rounded=0;orthogonalLoop=1;jettySize=auto;html=1;entryX=0.5;entryY=0;entryDx=0;entryDy=0;" edge="1" parent="1" source="-5FIWgzTD5Q0oiWVd5yK-47" target="-5FIWgzTD5Q0oiWVd5yK-48">
          <mxGeometry relative="1" as="geometry">
            <Array as="points">
              <mxPoint x="730" y="630" />
              <mxPoint x="460" y="630" />
            </Array>
          </mxGeometry>
        </mxCell>
        <mxCell id="-5FIWgzTD5Q0oiWVd5yK-47" value="$CATALINA_HOME\conf\server.xml" style="whiteSpace=wrap;html=1;" vertex="1" parent="1">
          <mxGeometry x="630" y="560" width="200" height="60" as="geometry" />
        </mxCell>
        <mxCell id="-5FIWgzTD5Q0oiWVd5yK-55" value="" style="edgeStyle=orthogonalEdgeStyle;rounded=0;orthogonalLoop=1;jettySize=auto;html=1;" edge="1" parent="1" source="-5FIWgzTD5Q0oiWVd5yK-48" target="-5FIWgzTD5Q0oiWVd5yK-54">
          <mxGeometry relative="1" as="geometry" />
        </mxCell>
        <mxCell id="-5FIWgzTD5Q0oiWVd5yK-48" value="&amp;lt;&lt;span style=&quot;box-sizing: border-box; font-weight: 600; color: rgb(99, 177, 117); font-family: &amp;quot;Source Code Pro&amp;quot;, Consolas, &amp;quot;Bitstream Vera Sans Mono&amp;quot;, &amp;quot;Courier New&amp;quot;, Courier, monospace; font-size: 14px; text-align: start; background-color: rgb(250, 250, 250);&quot; class=&quot;hljs-name&quot;&gt;Connector&lt;/span&gt;&lt;span style=&quot;font-family: &amp;quot;Source Code Pro&amp;quot;, Consolas, &amp;quot;Bitstream Vera Sans Mono&amp;quot;, &amp;quot;Courier New&amp;quot;, Courier, monospace; font-size: 14px; text-align: start; background-color: rgb(250, 250, 250);&quot;&gt; &lt;/span&gt;&lt;span style=&quot;box-sizing: border-box; font-family: &amp;quot;Source Code Pro&amp;quot;, Consolas, &amp;quot;Bitstream Vera Sans Mono&amp;quot;, &amp;quot;Courier New&amp;quot;, Courier, monospace; font-size: 14px; text-align: start; background-color: rgb(250, 250, 250);&quot; class=&quot;hljs-attr&quot;&gt;port&lt;/span&gt;&lt;span style=&quot;font-family: &amp;quot;Source Code Pro&amp;quot;, Consolas, &amp;quot;Bitstream Vera Sans Mono&amp;quot;, &amp;quot;Courier New&amp;quot;, Courier, monospace; font-size: 14px; text-align: start; background-color: rgb(250, 250, 250);&quot;&gt;=&lt;/span&gt;&lt;span style=&quot;box-sizing: border-box; color: rgb(78, 147, 89); font-family: &amp;quot;Source Code Pro&amp;quot;, Consolas, &amp;quot;Bitstream Vera Sans Mono&amp;quot;, &amp;quot;Courier New&amp;quot;, Courier, monospace; font-size: 14px; text-align: start; background-color: rgb(250, 250, 250);&quot; class=&quot;hljs-string&quot;&gt;&quot;8080&quot;&lt;/span&gt;&lt;span style=&quot;font-family: &amp;quot;Source Code Pro&amp;quot;, Consolas, &amp;quot;Bitstream Vera Sans Mono&amp;quot;, &amp;quot;Courier New&amp;quot;, Courier, monospace; font-size: 14px; text-align: start; background-color: rgb(250, 250, 250);&quot;&gt; &lt;/span&gt;&lt;span style=&quot;box-sizing: border-box; font-family: &amp;quot;Source Code Pro&amp;quot;, Consolas, &amp;quot;Bitstream Vera Sans Mono&amp;quot;, &amp;quot;Courier New&amp;quot;, Courier, monospace; font-size: 14px; text-align: start; background-color: rgb(250, 250, 250);&quot; class=&quot;hljs-attr&quot;&gt;protocol&lt;/span&gt;&lt;span style=&quot;font-family: &amp;quot;Source Code Pro&amp;quot;, Consolas, &amp;quot;Bitstream Vera Sans Mono&amp;quot;, &amp;quot;Courier New&amp;quot;, Courier, monospace; font-size: 14px; text-align: start; background-color: rgb(250, 250, 250);&quot;&gt;=&lt;/span&gt;&lt;span style=&quot;box-sizing: border-box; color: rgb(78, 147, 89); font-family: &amp;quot;Source Code Pro&amp;quot;, Consolas, &amp;quot;Bitstream Vera Sans Mono&amp;quot;, &amp;quot;Courier New&amp;quot;, Courier, monospace; font-size: 14px; text-align: start; background-color: rgb(250, 250, 250);&quot; class=&quot;hljs-string&quot;&gt;&quot;HTTP/1.1&quot;&lt;/span&gt;&lt;span style=&quot;font-family: &amp;quot;Source Code Pro&amp;quot;, Consolas, &amp;quot;Bitstream Vera Sans Mono&amp;quot;, &amp;quot;Courier New&amp;quot;, Courier, monospace; font-size: 14px; text-align: start; background-color: rgb(250, 250, 250);&quot;&gt; &lt;br/&gt;  &lt;/span&gt;&lt;span style=&quot;box-sizing: border-box; font-family: &amp;quot;Source Code Pro&amp;quot;, Consolas, &amp;quot;Bitstream Vera Sans Mono&amp;quot;, &amp;quot;Courier New&amp;quot;, Courier, monospace; font-size: 14px; text-align: start; background-color: rgb(250, 250, 250);&quot; class=&quot;hljs-attr&quot;&gt;connectionTimeout&lt;/span&gt;&lt;span style=&quot;font-family: &amp;quot;Source Code Pro&amp;quot;, Consolas, &amp;quot;Bitstream Vera Sans Mono&amp;quot;, &amp;quot;Courier New&amp;quot;, Courier, monospace; font-size: 14px; text-align: start; background-color: rgb(250, 250, 250);&quot;&gt;=&lt;/span&gt;&lt;span style=&quot;box-sizing: border-box; color: rgb(78, 147, 89); font-family: &amp;quot;Source Code Pro&amp;quot;, Consolas, &amp;quot;Bitstream Vera Sans Mono&amp;quot;, &amp;quot;Courier New&amp;quot;, Courier, monospace; font-size: 14px; text-align: start; background-color: rgb(250, 250, 250);&quot; class=&quot;hljs-string&quot;&gt;&quot;20000&quot;&lt;/span&gt;&lt;span style=&quot;font-family: &amp;quot;Source Code Pro&amp;quot;, Consolas, &amp;quot;Bitstream Vera Sans Mono&amp;quot;, &amp;quot;Courier New&amp;quot;, Courier, monospace; font-size: 14px; text-align: start; background-color: rgb(250, 250, 250);&quot;&gt; &lt;/span&gt;&lt;span style=&quot;box-sizing: border-box; font-family: &amp;quot;Source Code Pro&amp;quot;, Consolas, &amp;quot;Bitstream Vera Sans Mono&amp;quot;, &amp;quot;Courier New&amp;quot;, Courier, monospace; font-size: 14px; text-align: start; background-color: rgb(250, 250, 250);&quot; class=&quot;hljs-attr&quot;&gt;redirectPort&lt;/span&gt;&lt;span style=&quot;font-family: &amp;quot;Source Code Pro&amp;quot;, Consolas, &amp;quot;Bitstream Vera Sans Mono&amp;quot;, &amp;quot;Courier New&amp;quot;, Courier, monospace; font-size: 14px; text-align: start; background-color: rgb(250, 250, 250);&quot;&gt;=&lt;/span&gt;&lt;span style=&quot;box-sizing: border-box; color: rgb(78, 147, 89); font-family: &amp;quot;Source Code Pro&amp;quot;, Consolas, &amp;quot;Bitstream Vera Sans Mono&amp;quot;, &amp;quot;Courier New&amp;quot;, Courier, monospace; font-size: 14px; text-align: start; background-color: rgb(250, 250, 250);&quot; class=&quot;hljs-string&quot;&gt;&quot;8443&quot;&lt;/span&gt;&lt;span style=&quot;font-family: &amp;quot;Source Code Pro&amp;quot;, Consolas, &amp;quot;Bitstream Vera Sans Mono&amp;quot;, &amp;quot;Courier New&amp;quot;, Courier, monospace; font-size: 14px; text-align: start; background-color: rgb(250, 250, 250);&quot;&gt; /&amp;gt;&lt;/span&gt;" style="whiteSpace=wrap;html=1;" vertex="1" parent="1">
          <mxGeometry x="320" y="650" width="280" height="100" as="geometry" />
        </mxCell>
        <mxCell id="-5FIWgzTD5Q0oiWVd5yK-54" value="Open the port via Unix commands or windows firewall rules" style="whiteSpace=wrap;html=1;" vertex="1" parent="1">
          <mxGeometry x="640" y="650" width="120" height="60" as="geometry" />
        </mxCell>
        <mxCell id="-5FIWgzTD5Q0oiWVd5yK-62" value="" style="edgeStyle=orthogonalEdgeStyle;rounded=0;orthogonalLoop=1;jettySize=auto;html=1;" edge="1" parent="1" source="-5FIWgzTD5Q0oiWVd5yK-56" target="-5FIWgzTD5Q0oiWVd5yK-57">
          <mxGeometry relative="1" as="geometry" />
        </mxCell>
        <mxCell id="-5FIWgzTD5Q0oiWVd5yK-56" value="Deploy from maven" style="whiteSpace=wrap;html=1;" vertex="1" parent="1">
          <mxGeometry y="760" width="120" height="60" as="geometry" />
        </mxCell>
        <mxCell id="-5FIWgzTD5Q0oiWVd5yK-63" value="" style="edgeStyle=orthogonalEdgeStyle;rounded=0;orthogonalLoop=1;jettySize=auto;html=1;" edge="1" parent="1" source="-5FIWgzTD5Q0oiWVd5yK-57" target="-5FIWgzTD5Q0oiWVd5yK-58">
          <mxGeometry relative="1" as="geometry" />
        </mxCell>
        <mxCell id="-5FIWgzTD5Q0oiWVd5yK-57" value="Configure tomcat in maven&#39;s settings.xml file" style="whiteSpace=wrap;html=1;" vertex="1" parent="1">
          <mxGeometry x="160" y="760" width="120" height="60" as="geometry" />
        </mxCell>
        <mxCell id="-5FIWgzTD5Q0oiWVd5yK-64" value="" style="edgeStyle=orthogonalEdgeStyle;rounded=0;orthogonalLoop=1;jettySize=auto;html=1;" edge="1" parent="1" source="-5FIWgzTD5Q0oiWVd5yK-58" target="-5FIWgzTD5Q0oiWVd5yK-59">
          <mxGeometry relative="1" as="geometry" />
        </mxCell>
        <mxCell id="-5FIWgzTD5Q0oiWVd5yK-65" style="edgeStyle=orthogonalEdgeStyle;rounded=0;orthogonalLoop=1;jettySize=auto;html=1;entryX=0;entryY=0.5;entryDx=0;entryDy=0;" edge="1" parent="1" source="-5FIWgzTD5Q0oiWVd5yK-58" target="-5FIWgzTD5Q0oiWVd5yK-60">
          <mxGeometry relative="1" as="geometry" />
        </mxCell>
        <mxCell id="-5FIWgzTD5Q0oiWVd5yK-58" value="May be in multiple directories:" style="whiteSpace=wrap;html=1;" vertex="1" parent="1">
          <mxGeometry x="320" y="760" width="120" height="60" as="geometry" />
        </mxCell>
        <mxCell id="-5FIWgzTD5Q0oiWVd5yK-67" style="edgeStyle=orthogonalEdgeStyle;rounded=0;orthogonalLoop=1;jettySize=auto;html=1;" edge="1" parent="1" source="-5FIWgzTD5Q0oiWVd5yK-59" target="-5FIWgzTD5Q0oiWVd5yK-66">
          <mxGeometry relative="1" as="geometry">
            <Array as="points">
              <mxPoint x="730" y="790" />
              <mxPoint x="730" y="1050" />
              <mxPoint x="285" y="1050" />
            </Array>
          </mxGeometry>
        </mxCell>
        <mxCell id="-5FIWgzTD5Q0oiWVd5yK-59" value="&amp;nbsp;${maven.home}/conf/settings.xml" style="whiteSpace=wrap;html=1;" vertex="1" parent="1">
          <mxGeometry x="480" y="760" width="200" height="60" as="geometry" />
        </mxCell>
        <mxCell id="-5FIWgzTD5Q0oiWVd5yK-69" style="edgeStyle=orthogonalEdgeStyle;rounded=0;orthogonalLoop=1;jettySize=auto;html=1;exitX=0.5;exitY=1;exitDx=0;exitDy=0;entryX=1;entryY=0.815;entryDx=0;entryDy=0;entryPerimeter=0;" edge="1" parent="1" source="-5FIWgzTD5Q0oiWVd5yK-60" target="-5FIWgzTD5Q0oiWVd5yK-66">
          <mxGeometry relative="1" as="geometry" />
        </mxCell>
        <mxCell id="-5FIWgzTD5Q0oiWVd5yK-60" value="${user.home}/.m2/settings.xml" style="whiteSpace=wrap;html=1;" vertex="1" parent="1">
          <mxGeometry x="480" y="840" width="220" height="60" as="geometry" />
        </mxCell>
        <mxCell id="-5FIWgzTD5Q0oiWVd5yK-66" value="&amp;lt;server&amp;gt;&lt;span style=&quot;box-sizing: border-box; font-family: &amp;quot;Source Code Pro&amp;quot;, Consolas, &amp;quot;Bitstream Vera Sans Mono&amp;quot;, &amp;quot;Courier New&amp;quot;, Courier, monospace; font-size: 14px; text-align: start;&quot; class=&quot;hljs-tag&quot;&gt;&lt;/span&gt;&lt;span style=&quot;font-family: &amp;quot;Source Code Pro&amp;quot;, Consolas, &amp;quot;Bitstream Vera Sans Mono&amp;quot;, &amp;quot;Courier New&amp;quot;, Courier, monospace; font-size: 14px; text-align: start; background-color: rgb(250, 250, 250);&quot;&gt;&lt;br&gt;    &lt;/span&gt;&lt;span style=&quot;box-sizing: border-box; font-family: &amp;quot;Source Code Pro&amp;quot;, Consolas, &amp;quot;Bitstream Vera Sans Mono&amp;quot;, &amp;quot;Courier New&amp;quot;, Courier, monospace; font-size: 14px; text-align: start;&quot; class=&quot;hljs-tag&quot;&gt;&amp;lt;&lt;span style=&quot;box-sizing: border-box; font-weight: 600; color: rgb(99, 177, 117);&quot; class=&quot;hljs-name&quot;&gt;id&lt;/span&gt;&amp;gt;&lt;/span&gt;&lt;span style=&quot;font-family: &amp;quot;Source Code Pro&amp;quot;, Consolas, &amp;quot;Bitstream Vera Sans Mono&amp;quot;, &amp;quot;Courier New&amp;quot;, Courier, monospace; font-size: 14px; text-align: start; background-color: rgb(250, 250, 250);&quot;&gt;TomcatServer&lt;/span&gt;&lt;span style=&quot;box-sizing: border-box; font-family: &amp;quot;Source Code Pro&amp;quot;, Consolas, &amp;quot;Bitstream Vera Sans Mono&amp;quot;, &amp;quot;Courier New&amp;quot;, Courier, monospace; font-size: 14px; text-align: start;&quot; class=&quot;hljs-tag&quot;&gt;&amp;lt;/&lt;span style=&quot;box-sizing: border-box; font-weight: 600; color: rgb(99, 177, 117);&quot; class=&quot;hljs-name&quot;&gt;id&lt;/span&gt;&amp;gt;&lt;/span&gt;&lt;span style=&quot;font-family: &amp;quot;Source Code Pro&amp;quot;, Consolas, &amp;quot;Bitstream Vera Sans Mono&amp;quot;, &amp;quot;Courier New&amp;quot;, Courier, monospace; font-size: 14px; text-align: start; background-color: rgb(250, 250, 250);&quot;&gt;&lt;br&gt;    &lt;/span&gt;&lt;span style=&quot;box-sizing: border-box; font-family: &amp;quot;Source Code Pro&amp;quot;, Consolas, &amp;quot;Bitstream Vera Sans Mono&amp;quot;, &amp;quot;Courier New&amp;quot;, Courier, monospace; font-size: 14px; text-align: start;&quot; class=&quot;hljs-tag&quot;&gt;&amp;lt;&lt;span style=&quot;box-sizing: border-box; font-weight: 600; color: rgb(99, 177, 117);&quot; class=&quot;hljs-name&quot;&gt;username&lt;/span&gt;&amp;gt;&lt;/span&gt;&lt;span style=&quot;font-family: &amp;quot;Source Code Pro&amp;quot;, Consolas, &amp;quot;Bitstream Vera Sans Mono&amp;quot;, &amp;quot;Courier New&amp;quot;, Courier, monospace; font-size: 14px; text-align: start; background-color: rgb(250, 250, 250);&quot;&gt;admin&lt;/span&gt;&lt;span style=&quot;box-sizing: border-box; font-family: &amp;quot;Source Code Pro&amp;quot;, Consolas, &amp;quot;Bitstream Vera Sans Mono&amp;quot;, &amp;quot;Courier New&amp;quot;, Courier, monospace; font-size: 14px; text-align: start;&quot; class=&quot;hljs-tag&quot;&gt;&amp;lt;/&lt;span style=&quot;box-sizing: border-box; font-weight: 600; color: rgb(99, 177, 117);&quot; class=&quot;hljs-name&quot;&gt;username&lt;/span&gt;&amp;gt;&lt;/span&gt;&lt;span style=&quot;font-family: &amp;quot;Source Code Pro&amp;quot;, Consolas, &amp;quot;Bitstream Vera Sans Mono&amp;quot;, &amp;quot;Courier New&amp;quot;, Courier, monospace; font-size: 14px; text-align: start; background-color: rgb(250, 250, 250);&quot;&gt;&lt;br&gt;    &lt;/span&gt;&lt;span style=&quot;box-sizing: border-box; font-family: &amp;quot;Source Code Pro&amp;quot;, Consolas, &amp;quot;Bitstream Vera Sans Mono&amp;quot;, &amp;quot;Courier New&amp;quot;, Courier, monospace; font-size: 14px; text-align: start;&quot; class=&quot;hljs-tag&quot;&gt;&amp;lt;&lt;span style=&quot;box-sizing: border-box; font-weight: 600; color: rgb(99, 177, 117);&quot; class=&quot;hljs-name&quot;&gt;password&lt;/span&gt;&amp;gt;&lt;/span&gt;&lt;span style=&quot;font-family: &amp;quot;Source Code Pro&amp;quot;, Consolas, &amp;quot;Bitstream Vera Sans Mono&amp;quot;, &amp;quot;Courier New&amp;quot;, Courier, monospace; font-size: 14px; text-align: start; background-color: rgb(250, 250, 250);&quot;&gt;password&lt;/span&gt;&lt;span style=&quot;box-sizing: border-box; font-family: &amp;quot;Source Code Pro&amp;quot;, Consolas, &amp;quot;Bitstream Vera Sans Mono&amp;quot;, &amp;quot;Courier New&amp;quot;, Courier, monospace; font-size: 14px; text-align: start;&quot; class=&quot;hljs-tag&quot;&gt;&amp;lt;/&lt;span style=&quot;box-sizing: border-box; font-weight: 600; color: rgb(99, 177, 117);&quot; class=&quot;hljs-name&quot;&gt;password&lt;/span&gt;&amp;gt;&lt;/span&gt;&lt;span style=&quot;font-family: &amp;quot;Source Code Pro&amp;quot;, Consolas, &amp;quot;Bitstream Vera Sans Mono&amp;quot;, &amp;quot;Courier New&amp;quot;, Courier, monospace; font-size: 14px; text-align: start; background-color: rgb(250, 250, 250);&quot;&gt;&lt;br&gt;&lt;/span&gt;&lt;span style=&quot;box-sizing: border-box; font-family: &amp;quot;Source Code Pro&amp;quot;, Consolas, &amp;quot;Bitstream Vera Sans Mono&amp;quot;, &amp;quot;Courier New&amp;quot;, Courier, monospace; font-size: 14px; text-align: start;&quot; class=&quot;hljs-tag&quot;&gt;&amp;lt;/&lt;span style=&quot;box-sizing: border-box; font-weight: 600; color: rgb(99, 177, 117);&quot; class=&quot;hljs-name&quot;&gt;server&lt;/span&gt;&amp;gt;&lt;/span&gt;" style="whiteSpace=wrap;html=1;" vertex="1" parent="1">
          <mxGeometry x="160" y="860" width="250" height="130" as="geometry" />
        </mxCell>
        <mxCell id="-5FIWgzTD5Q0oiWVd5yK-75" value="" style="edgeStyle=orthogonalEdgeStyle;rounded=0;orthogonalLoop=1;jettySize=auto;html=1;" edge="1" parent="1" source="-5FIWgzTD5Q0oiWVd5yK-70" target="-5FIWgzTD5Q0oiWVd5yK-71">
          <mxGeometry relative="1" as="geometry" />
        </mxCell>
        <mxCell id="-5FIWgzTD5Q0oiWVd5yK-70" value="Create Basic Maven Web Application" style="whiteSpace=wrap;html=1;" vertex="1" parent="1">
          <mxGeometry y="1090" width="120" height="60" as="geometry" />
        </mxCell>
        <mxCell id="-5FIWgzTD5Q0oiWVd5yK-76" value="" style="edgeStyle=orthogonalEdgeStyle;rounded=0;orthogonalLoop=1;jettySize=auto;html=1;" edge="1" parent="1" source="-5FIWgzTD5Q0oiWVd5yK-71" target="-5FIWgzTD5Q0oiWVd5yK-72">
          <mxGeometry relative="1" as="geometry" />
        </mxCell>
        <mxCell id="-5FIWgzTD5Q0oiWVd5yK-71" value="Test Deployment" style="whiteSpace=wrap;html=1;" vertex="1" parent="1">
          <mxGeometry x="160" y="1090" width="120" height="60" as="geometry" />
        </mxCell>
        <mxCell id="-5FIWgzTD5Q0oiWVd5yK-77" value="" style="edgeStyle=orthogonalEdgeStyle;rounded=0;orthogonalLoop=1;jettySize=auto;html=1;" edge="1" parent="1" source="-5FIWgzTD5Q0oiWVd5yK-72" target="-5FIWgzTD5Q0oiWVd5yK-73">
          <mxGeometry relative="1" as="geometry" />
        </mxCell>
        <mxCell id="-5FIWgzTD5Q0oiWVd5yK-72" value="Navigate to application home" style="whiteSpace=wrap;html=1;" vertex="1" parent="1">
          <mxGeometry x="320" y="1090" width="120" height="60" as="geometry" />
        </mxCell>
        <mxCell id="-5FIWgzTD5Q0oiWVd5yK-78" value="" style="edgeStyle=orthogonalEdgeStyle;rounded=0;orthogonalLoop=1;jettySize=auto;html=1;" edge="1" parent="1" source="-5FIWgzTD5Q0oiWVd5yK-73" target="-5FIWgzTD5Q0oiWVd5yK-74">
          <mxGeometry relative="1" as="geometry" />
        </mxCell>
        <mxCell id="-5FIWgzTD5Q0oiWVd5yK-73" value="Run command on console to create a new java web application" style="whiteSpace=wrap;html=1;" vertex="1" parent="1">
          <mxGeometry x="480" y="1090" width="120" height="60" as="geometry" />
        </mxCell>
        <mxCell id="-5FIWgzTD5Q0oiWVd5yK-74" value="mvn archetype:generate &lt;span style=&quot;box-sizing: border-box; color: rgb(120, 169, 96); font-family: &amp;quot;Source Code Pro&amp;quot;, Consolas, &amp;quot;Bitstream Vera Sans Mono&amp;quot;, &amp;quot;Courier New&amp;quot;, Courier, monospace; font-size: 14px; text-align: start;&quot; class=&quot;hljs-literal&quot;&gt;-DgroupId&lt;/span&gt;&lt;span style=&quot;font-family: &amp;quot;Source Code Pro&amp;quot;, Consolas, &amp;quot;Bitstream Vera Sans Mono&amp;quot;, &amp;quot;Courier New&amp;quot;, Courier, monospace; font-size: 14px; text-align: start; background-color: rgb(250, 250, 250);&quot;&gt;=com.baeldung &lt;/span&gt;&lt;span style=&quot;box-sizing: border-box; color: rgb(120, 169, 96); font-family: &amp;quot;Source Code Pro&amp;quot;, Consolas, &amp;quot;Bitstream Vera Sans Mono&amp;quot;, &amp;quot;Courier New&amp;quot;, Courier, monospace; font-size: 14px; text-align: start;&quot; class=&quot;hljs-literal&quot;&gt;-DartifactId&lt;/span&gt;&lt;span style=&quot;font-family: &amp;quot;Source Code Pro&amp;quot;, Consolas, &amp;quot;Bitstream Vera Sans Mono&amp;quot;, &amp;quot;Courier New&amp;quot;, Courier, monospace; font-size: 14px; text-align: start; background-color: rgb(250, 250, 250);&quot;&gt;=tomcat&lt;/span&gt;&lt;span style=&quot;box-sizing: border-box; color: rgb(120, 169, 96); font-family: &amp;quot;Source Code Pro&amp;quot;, Consolas, &amp;quot;Bitstream Vera Sans Mono&amp;quot;, &amp;quot;Courier New&amp;quot;, Courier, monospace; font-size: 14px; text-align: start;&quot; class=&quot;hljs-literal&quot;&gt;-war-deployment&lt;/span&gt;&lt;span style=&quot;font-family: &amp;quot;Source Code Pro&amp;quot;, Consolas, &amp;quot;Bitstream Vera Sans Mono&amp;quot;, &amp;quot;Courier New&amp;quot;, Courier, monospace; font-size: 14px; text-align: start; background-color: rgb(250, 250, 250);&quot;&gt; &lt;br/&gt;  &lt;/span&gt;&lt;span style=&quot;box-sizing: border-box; color: rgb(120, 169, 96); font-family: &amp;quot;Source Code Pro&amp;quot;, Consolas, &amp;quot;Bitstream Vera Sans Mono&amp;quot;, &amp;quot;Courier New&amp;quot;, Courier, monospace; font-size: 14px; text-align: start;&quot; class=&quot;hljs-literal&quot;&gt;-DarchetypeArtifactId&lt;/span&gt;&lt;span style=&quot;font-family: &amp;quot;Source Code Pro&amp;quot;, Consolas, &amp;quot;Bitstream Vera Sans Mono&amp;quot;, &amp;quot;Courier New&amp;quot;, Courier, monospace; font-size: 14px; text-align: start; background-color: rgb(250, 250, 250);&quot;&gt;=maven&lt;/span&gt;&lt;span style=&quot;box-sizing: border-box; color: rgb(120, 169, 96); font-family: &amp;quot;Source Code Pro&amp;quot;, Consolas, &amp;quot;Bitstream Vera Sans Mono&amp;quot;, &amp;quot;Courier New&amp;quot;, Courier, monospace; font-size: 14px; text-align: start;&quot; class=&quot;hljs-literal&quot;&gt;-archetype-webapp&lt;/span&gt;&lt;span style=&quot;font-family: &amp;quot;Source Code Pro&amp;quot;, Consolas, &amp;quot;Bitstream Vera Sans Mono&amp;quot;, &amp;quot;Courier New&amp;quot;, Courier, monospace; font-size: 14px; text-align: start; background-color: rgb(250, 250, 250);&quot;&gt; &lt;/span&gt;&lt;span style=&quot;box-sizing: border-box; color: rgb(120, 169, 96); font-family: &amp;quot;Source Code Pro&amp;quot;, Consolas, &amp;quot;Bitstream Vera Sans Mono&amp;quot;, &amp;quot;Courier New&amp;quot;, Courier, monospace; font-size: 14px; text-align: start;&quot; class=&quot;hljs-literal&quot;&gt;-DinteractiveMode&lt;/span&gt;&lt;span style=&quot;font-family: &amp;quot;Source Code Pro&amp;quot;, Consolas, &amp;quot;Bitstream Vera Sans Mono&amp;quot;, &amp;quot;Courier New&amp;quot;, Courier, monospace; font-size: 14px; text-align: start; background-color: rgb(250, 250, 250);&quot;&gt;=false&lt;/span&gt;" style="whiteSpace=wrap;html=1;" vertex="1" parent="1">
          <mxGeometry y="1190" width="850" height="50" as="geometry" />
        </mxCell>
        <mxCell id="-5FIWgzTD5Q0oiWVd5yK-82" value="" style="edgeStyle=orthogonalEdgeStyle;rounded=0;orthogonalLoop=1;jettySize=auto;html=1;" edge="1" parent="1" source="-5FIWgzTD5Q0oiWVd5yK-80" target="-5FIWgzTD5Q0oiWVd5yK-81">
          <mxGeometry relative="1" as="geometry" />
        </mxCell>
        <mxCell id="-5FIWgzTD5Q0oiWVd5yK-80" value="creates complete web application in&amp;nbsp;&lt;b&gt;tomcat-war-deployment&lt;/b&gt;" style="whiteSpace=wrap;html=1;" vertex="1" parent="1">
          <mxGeometry y="1280" width="190" height="60" as="geometry" />
        </mxCell>
        <mxCell id="-5FIWgzTD5Q0oiWVd5yK-81" value="pulled from&amp;nbsp;&amp;nbsp;-DartifactId" style="whiteSpace=wrap;html=1;" vertex="1" parent="1">
          <mxGeometry x="240" y="1280" width="180" height="60" as="geometry" />
        </mxCell>
        <mxCell id="-5FIWgzTD5Q0oiWVd5yK-85" style="edgeStyle=orthogonalEdgeStyle;rounded=0;orthogonalLoop=1;jettySize=auto;html=1;exitX=1;exitY=0.5;exitDx=0;exitDy=0;entryX=0;entryY=0.5;entryDx=0;entryDy=0;" edge="1" parent="1" source="-5FIWgzTD5Q0oiWVd5yK-83" target="-5FIWgzTD5Q0oiWVd5yK-84">
          <mxGeometry relative="1" as="geometry" />
        </mxCell>
        <mxCell id="-5FIWgzTD5Q0oiWVd5yK-83" value="edit the&amp;nbsp;pom.xml&amp;nbsp;" style="whiteSpace=wrap;html=1;" vertex="1" parent="1">
          <mxGeometry x="50" y="1455" width="120" height="60" as="geometry" />
        </mxCell>
        <mxCell id="-5FIWgzTD5Q0oiWVd5yK-105" style="edgeStyle=orthogonalEdgeStyle;rounded=0;orthogonalLoop=1;jettySize=auto;html=1;exitX=0;exitY=1;exitDx=0;exitDy=0;entryX=0;entryY=0.5;entryDx=0;entryDy=0;" edge="1" parent="1" source="-5FIWgzTD5Q0oiWVd5yK-84" target="-5FIWgzTD5Q0oiWVd5yK-101">
          <mxGeometry relative="1" as="geometry">
            <Array as="points">
              <mxPoint x="230" y="1890" />
            </Array>
          </mxGeometry>
        </mxCell>
        <mxCell id="-5FIWgzTD5Q0oiWVd5yK-107" style="edgeStyle=orthogonalEdgeStyle;rounded=0;orthogonalLoop=1;jettySize=auto;html=1;exitX=0;exitY=1;exitDx=0;exitDy=0;entryX=0;entryY=0.5;entryDx=0;entryDy=0;" edge="1" parent="1" source="-5FIWgzTD5Q0oiWVd5yK-84" target="-5FIWgzTD5Q0oiWVd5yK-97">
          <mxGeometry relative="1" as="geometry">
            <Array as="points">
              <mxPoint x="230" y="1810" />
            </Array>
          </mxGeometry>
        </mxCell>
        <mxCell id="-5FIWgzTD5Q0oiWVd5yK-108" style="edgeStyle=orthogonalEdgeStyle;rounded=0;orthogonalLoop=1;jettySize=auto;html=1;exitX=0;exitY=1;exitDx=0;exitDy=0;entryX=0;entryY=0.5;entryDx=0;entryDy=0;" edge="1" parent="1" source="-5FIWgzTD5Q0oiWVd5yK-84" target="-5FIWgzTD5Q0oiWVd5yK-91">
          <mxGeometry relative="1" as="geometry">
            <Array as="points">
              <mxPoint x="230" y="1720" />
            </Array>
          </mxGeometry>
        </mxCell>
        <mxCell id="-5FIWgzTD5Q0oiWVd5yK-109" style="edgeStyle=orthogonalEdgeStyle;rounded=0;orthogonalLoop=1;jettySize=auto;html=1;exitX=0;exitY=1;exitDx=0;exitDy=0;entryX=0;entryY=0.5;entryDx=0;entryDy=0;" edge="1" parent="1" source="-5FIWgzTD5Q0oiWVd5yK-84" target="-5FIWgzTD5Q0oiWVd5yK-88">
          <mxGeometry relative="1" as="geometry">
            <Array as="points">
              <mxPoint x="230" y="1640" />
            </Array>
          </mxGeometry>
        </mxCell>
        <mxCell id="-5FIWgzTD5Q0oiWVd5yK-84" value="&lt;div&gt;&amp;lt;plugin&amp;gt;&lt;/div&gt;&lt;div&gt;&amp;nbsp; &amp;nbsp; &amp;lt;groupId&amp;gt;org.apache.tomcat.maven&amp;lt;/groupId&amp;gt;&lt;/div&gt;&lt;div&gt;&amp;nbsp; &amp;nbsp; &amp;lt;artifactId&amp;gt;tomcat7-maven-plugin&amp;lt;/artifactId&amp;gt;&lt;/div&gt;&lt;div&gt;&amp;nbsp; &amp;nbsp; &amp;lt;version&amp;gt;2.2&amp;lt;/version&amp;gt;&lt;/div&gt;&lt;div&gt;&amp;nbsp; &amp;nbsp; &amp;lt;configuration&amp;gt;&lt;/div&gt;&lt;div&gt;&amp;nbsp; &amp;nbsp; &amp;nbsp; &amp;nbsp; &amp;lt;url&amp;gt;http://localhost:8080/manager/text&amp;lt;/url&amp;gt;&lt;/div&gt;&lt;div&gt;&amp;nbsp; &amp;nbsp; &amp;nbsp; &amp;nbsp; &amp;lt;server&amp;gt;TomcatServer&amp;lt;/server&amp;gt;&lt;/div&gt;&lt;div&gt;&amp;nbsp; &amp;nbsp; &amp;nbsp; &amp;nbsp; &amp;lt;path&amp;gt;/myapp&amp;lt;/path&amp;gt;&lt;/div&gt;&lt;div&gt;&amp;nbsp; &amp;nbsp; &amp;lt;/configuration&amp;gt;&lt;/div&gt;&lt;div&gt;&amp;lt;/plugin&amp;gt;&lt;/div&gt;" style="whiteSpace=wrap;html=1;align=left;" vertex="1" parent="1">
          <mxGeometry x="230" y="1410" width="420" height="150" as="geometry" />
        </mxCell>
        <mxCell id="-5FIWgzTD5Q0oiWVd5yK-87" style="edgeStyle=orthogonalEdgeStyle;rounded=0;orthogonalLoop=1;jettySize=auto;html=1;entryX=0.75;entryY=0;entryDx=0;entryDy=0;" edge="1" parent="1" source="-5FIWgzTD5Q0oiWVd5yK-86" target="-5FIWgzTD5Q0oiWVd5yK-83">
          <mxGeometry relative="1" as="geometry">
            <Array as="points">
              <mxPoint x="140" y="1400" />
            </Array>
          </mxGeometry>
        </mxCell>
        <mxCell id="-5FIWgzTD5Q0oiWVd5yK-86" value="Enable Maven Deployment" style="whiteSpace=wrap;html=1;" vertex="1" parent="1">
          <mxGeometry y="1370" width="120" height="60" as="geometry" />
        </mxCell>
        <mxCell id="-5FIWgzTD5Q0oiWVd5yK-90" value="" style="edgeStyle=orthogonalEdgeStyle;rounded=0;orthogonalLoop=1;jettySize=auto;html=1;" edge="1" parent="1" source="-5FIWgzTD5Q0oiWVd5yK-88" target="-5FIWgzTD5Q0oiWVd5yK-89">
          <mxGeometry relative="1" as="geometry" />
        </mxCell>
        <mxCell id="-5FIWgzTD5Q0oiWVd5yK-88" value="Tomcat 7 plugin" style="whiteSpace=wrap;html=1;" vertex="1" parent="1">
          <mxGeometry x="280" y="1610" width="120" height="60" as="geometry" />
        </mxCell>
        <mxCell id="-5FIWgzTD5Q0oiWVd5yK-89" value="Works with both 7 and 8 without special changes" style="whiteSpace=wrap;html=1;" vertex="1" parent="1">
          <mxGeometry x="440" y="1610" width="120" height="60" as="geometry" />
        </mxCell>
        <mxCell id="-5FIWgzTD5Q0oiWVd5yK-95" value="" style="edgeStyle=orthogonalEdgeStyle;rounded=0;orthogonalLoop=1;jettySize=auto;html=1;" edge="1" parent="1" source="-5FIWgzTD5Q0oiWVd5yK-91" target="-5FIWgzTD5Q0oiWVd5yK-92">
          <mxGeometry relative="1" as="geometry" />
        </mxCell>
        <mxCell id="-5FIWgzTD5Q0oiWVd5yK-91" value="Configuration/url" style="whiteSpace=wrap;html=1;" vertex="1" parent="1">
          <mxGeometry x="280" y="1690" width="120" height="60" as="geometry" />
        </mxCell>
        <mxCell id="-5FIWgzTD5Q0oiWVd5yK-96" value="" style="edgeStyle=orthogonalEdgeStyle;rounded=0;orthogonalLoop=1;jettySize=auto;html=1;" edge="1" parent="1" source="-5FIWgzTD5Q0oiWVd5yK-92" target="-5FIWgzTD5Q0oiWVd5yK-94">
          <mxGeometry relative="1" as="geometry" />
        </mxCell>
        <mxCell id="-5FIWgzTD5Q0oiWVd5yK-92" value="URL we are sending the deployment to" style="whiteSpace=wrap;html=1;" vertex="1" parent="1">
          <mxGeometry x="440" y="1690" width="120" height="60" as="geometry" />
        </mxCell>
        <mxCell id="-5FIWgzTD5Q0oiWVd5yK-94" value="Tomcat knows what to do with our deployment" style="whiteSpace=wrap;html=1;" vertex="1" parent="1">
          <mxGeometry x="600" y="1690" width="120" height="60" as="geometry" />
        </mxCell>
        <mxCell id="-5FIWgzTD5Q0oiWVd5yK-99" value="" style="edgeStyle=orthogonalEdgeStyle;rounded=0;orthogonalLoop=1;jettySize=auto;html=1;" edge="1" parent="1" source="-5FIWgzTD5Q0oiWVd5yK-97" target="-5FIWgzTD5Q0oiWVd5yK-98">
          <mxGeometry relative="1" as="geometry" />
        </mxCell>
        <mxCell id="-5FIWgzTD5Q0oiWVd5yK-97" value="Configuration/server" style="whiteSpace=wrap;html=1;" vertex="1" parent="1">
          <mxGeometry x="280" y="1780" width="120" height="60" as="geometry" />
        </mxCell>
        <mxCell id="-5FIWgzTD5Q0oiWVd5yK-98" value="name of the server instance that Maven recognizes" style="whiteSpace=wrap;html=1;" vertex="1" parent="1">
          <mxGeometry x="440" y="1780" width="170" height="60" as="geometry" />
        </mxCell>
        <mxCell id="-5FIWgzTD5Q0oiWVd5yK-104" value="" style="edgeStyle=orthogonalEdgeStyle;rounded=0;orthogonalLoop=1;jettySize=auto;html=1;" edge="1" parent="1" source="-5FIWgzTD5Q0oiWVd5yK-101" target="-5FIWgzTD5Q0oiWVd5yK-102">
          <mxGeometry relative="1" as="geometry" />
        </mxCell>
        <mxCell id="-5FIWgzTD5Q0oiWVd5yK-101" value="Path" style="whiteSpace=wrap;html=1;" vertex="1" parent="1">
          <mxGeometry x="280" y="1860" width="120" height="60" as="geometry" />
        </mxCell>
        <mxCell id="-5FIWgzTD5Q0oiWVd5yK-102" value="Context Path of our deployment" style="whiteSpace=wrap;html=1;" vertex="1" parent="1">
          <mxGeometry x="440" y="1860" width="120" height="60" as="geometry" />
        </mxCell>
        <mxCell id="-5FIWgzTD5Q0oiWVd5yK-112" value="" style="edgeStyle=orthogonalEdgeStyle;rounded=0;orthogonalLoop=1;jettySize=auto;html=1;" edge="1" parent="1" source="-5FIWgzTD5Q0oiWVd5yK-110" target="-5FIWgzTD5Q0oiWVd5yK-111">
          <mxGeometry relative="1" as="geometry" />
        </mxCell>
        <mxCell id="-5FIWgzTD5Q0oiWVd5yK-110" value="Deployment Success" style="whiteSpace=wrap;html=1;" vertex="1" parent="1">
          <mxGeometry y="1950" width="120" height="60" as="geometry" />
        </mxCell>
        <mxCell id="-5FIWgzTD5Q0oiWVd5yK-111" value="http://localhost:8080/myapp" style="whiteSpace=wrap;html=1;" vertex="1" parent="1">
          <mxGeometry x="160" y="1950" width="180" height="60" as="geometry" />
        </mxCell>
        <mxCell id="-5FIWgzTD5Q0oiWVd5yK-123" style="edgeStyle=orthogonalEdgeStyle;rounded=0;orthogonalLoop=1;jettySize=auto;html=1;exitX=1;exitY=0.5;exitDx=0;exitDy=0;entryX=0.069;entryY=0;entryDx=0;entryDy=0;entryPerimeter=0;" edge="1" parent="1" source="-5FIWgzTD5Q0oiWVd5yK-113" target="-5FIWgzTD5Q0oiWVd5yK-117">
          <mxGeometry relative="1" as="geometry" />
        </mxCell>
        <mxCell id="-5FIWgzTD5Q0oiWVd5yK-113" value="Now, run the following commands from maven:" style="whiteSpace=wrap;html=1;" vertex="1" parent="1">
          <mxGeometry y="2040" width="120" height="60" as="geometry" />
        </mxCell>
        <mxCell id="-5FIWgzTD5Q0oiWVd5yK-115" value="Deploy" style="swimlane;whiteSpace=wrap;html=1;" vertex="1" parent="1">
          <mxGeometry x="160" y="2040" width="120" height="70" as="geometry" />
        </mxCell>
        <mxCell id="-5FIWgzTD5Q0oiWVd5yK-117" value="mvn tomcat7:deploy" style="text;html=1;align=center;verticalAlign=middle;resizable=0;points=[];autosize=1;strokeColor=none;fillColor=none;" vertex="1" parent="-5FIWgzTD5Q0oiWVd5yK-115">
          <mxGeometry x="-10" y="30" width="130" height="30" as="geometry" />
        </mxCell>
        <mxCell id="-5FIWgzTD5Q0oiWVd5yK-116" value="Undeploy" style="swimlane;whiteSpace=wrap;html=1;" vertex="1" parent="1">
          <mxGeometry x="320" y="2040" width="135" height="70" as="geometry" />
        </mxCell>
        <mxCell id="-5FIWgzTD5Q0oiWVd5yK-119" value="&amp;nbsp;mvn tomcat7:undeploy" style="text;html=1;align=center;verticalAlign=middle;resizable=0;points=[];autosize=1;strokeColor=none;fillColor=none;" vertex="1" parent="-5FIWgzTD5Q0oiWVd5yK-116">
          <mxGeometry x="-15" y="30" width="150" height="30" as="geometry" />
        </mxCell>
        <mxCell id="-5FIWgzTD5Q0oiWVd5yK-118" value="Redeploy" style="swimlane;whiteSpace=wrap;html=1;" vertex="1" parent="1">
          <mxGeometry x="500" y="2035" width="140" height="70" as="geometry" />
        </mxCell>
        <mxCell id="-5FIWgzTD5Q0oiWVd5yK-120" value="mvn tomcat7:redeploy" style="text;html=1;align=center;verticalAlign=middle;resizable=0;points=[];autosize=1;strokeColor=none;fillColor=none;" vertex="1" parent="-5FIWgzTD5Q0oiWVd5yK-118">
          <mxGeometry y="25" width="140" height="30" as="geometry" />
        </mxCell>
        <mxCell id="-5FIWgzTD5Q0oiWVd5yK-124" style="edgeStyle=orthogonalEdgeStyle;rounded=0;orthogonalLoop=1;jettySize=auto;html=1;entryX=0.1;entryY=0.333;entryDx=0;entryDy=0;entryPerimeter=0;" edge="1" parent="1" source="-5FIWgzTD5Q0oiWVd5yK-117" target="-5FIWgzTD5Q0oiWVd5yK-119">
          <mxGeometry relative="1" as="geometry" />
        </mxCell>
        <mxCell id="-5FIWgzTD5Q0oiWVd5yK-125" value="" style="edgeStyle=orthogonalEdgeStyle;rounded=0;orthogonalLoop=1;jettySize=auto;html=1;" edge="1" parent="1" source="-5FIWgzTD5Q0oiWVd5yK-119" target="-5FIWgzTD5Q0oiWVd5yK-120">
          <mxGeometry relative="1" as="geometry" />
        </mxCell>
      </root>
    </mxGraphModel>
  </diagram>
</mxfile>
